<svg xmlns="http://www.w3.org/2000/svg" width="72" height="54" viewBox="0 0 72 54">
  <defs>
    <mask id="tap-cutout">
      <rect width="72" height="54" fill="#fff"/>
      <circle cx="53" cy="24" r="6.5" fill="none" stroke="#000" stroke-width="3.6"/>
      <path d="M51 24c0-3 4-3 4 0v10c2-3 6-2 7 1 3-1 5 1 5 4v2c0 6-4 10-10 10h-3c-7 0-11-4-11-10v-5c0-3 3-5 5-3l3 3V24Z" fill="#000"/>
    </mask>
  </defs>
  <g fill="none" stroke="#111" stroke-width="5" stroke-linecap="round" stroke-linejoin="round">
    <path d="M39 8H9a5 5 0 0 0-5 5v21a5 5 0 0 0 5 5h30"/>
    <path d="M19 47h15M27 40v7"/>
  </g>
  <rect x="38" y="10" width="30" height="41" rx="7" fill="#111" mask="url(#tap-cutout)"/>
</svg>
