<svg xmlns="http://www.w3.org/2000/svg" width="512" height="512" viewBox="0 0 512 512">
  <defs>
    <linearGradient id="bg" x1="50" y1="42" x2="466" y2="470" gradientUnits="userSpaceOnUse">
      <stop stop-color="#5927D7"/>
      <stop offset=".5" stop-color="#C24AA3"/>
      <stop offset="1" stop-color="#FF7417"/>
    </linearGradient>
    <linearGradient id="tap" x1="286" y1="218" x2="398" y2="432" gradientUnits="userSpaceOnUse">
      <stop stop-color="#E64D4A"/>
      <stop offset="1" stop-color="#FF7A18"/>
    </linearGradient>
  </defs>
  <rect x="24" y="24" width="464" height="464" rx="112" fill="url(#bg)"/>
  <rect x="78" y="104" width="270" height="218" rx="34" fill="none" stroke="#fff" stroke-width="28"/>
  <path d="M174 324v43M130 378h132" fill="none" stroke="#fff" stroke-width="28" stroke-linecap="round"/>
  <rect x="266" y="148" width="168" height="288" rx="47" fill="#fff"/>
  <circle cx="346" cy="267" r="36" fill="none" stroke="url(#tap)" stroke-width="20"/>
  <path d="M346 267v116" fill="none" stroke="url(#tap)" stroke-width="28" stroke-linecap="round"/>
  <path d="M346 329c9-10 24-8 32 4 8-8 22-4 28 7 10-4 23 2 27 14l8 38c5 22-13 44-36 44h-31c-26 0-46-20-46-46v-38c0-13 8-22 18-23Z" fill="url(#tap)"/>
</svg>
