<svg xmlns="http://www.w3.org/2000/svg" width="72" height="72" viewBox="0 0 72 72">
  <g fill="none" stroke="#000" stroke-width="5.5" stroke-linecap="round" stroke-linejoin="round">
    <rect x="8" y="6" width="34" height="46" rx="6"/>
    <path d="M19 14h12"/>
    <circle cx="25" cy="37" r="6"/>
    <path d="M25 37v17c0 6 5 11 11 11h8c5 0 9-3 10-8l2-12c1-4-2-8-6-9l-5-1c-3-1-5 0-7 2l-4-2c-3-1-6 0-8 2"/>
    <rect x="48" y="9" width="17" height="12" rx="2"/>
    <path d="M52 25h9"/>
  </g>
</svg>
